<?xml version="1.0" standalone="no"?>
<svg viewBox="0 0 200 200" xmlns="http://www.w3.org/2000/svg">
  <path fill="#ABC4FF" d="M27.7,-50.2C35.8,-37.9,42.1,-30,52.4,-20.2C62.7,-10.4,77,1.4,78.8,13.7C80.7,26,70.2,38.9,58,46.7C45.7,54.4,31.6,57.1,17.4,63C3.2,69,-11.2,78.1,-21.9,74.9C-32.6,71.7,-39.6,56,-48.9,43.4C-58.2,30.8,-69.7,21.2,-69.1,11.2C-68.6,1.2,-55.9,-9.3,-48.1,-20.1C-40.3,-30.9,-37.2,-42.1,-30,-54.7C-22.8,-67.4,-11.4,-81.5,-0.8,-80.3C9.8,-79.1,19.7,-62.5,27.7,-50.2Z" transform="translate(100 100)" />
</svg>
